<mxfile host="Electron" modified="2023-10-01T01:49:26.825Z" agent="Mozilla/5.0 (X11; Linux x86_64) AppleWebKit/537.36 (KHTML, like Gecko) draw.io/22.0.0 Chrome/114.0.5735.289 Electron/25.8.3 Safari/537.36" etag="fZB6er-nAtX6ih31IBeq" version="22.0.0" type="device">
  <diagram name="Page-1" id="fo18u6Ch1KVScq3Fo-Wy">
    <mxGraphModel dx="1518" dy="911" grid="1" gridSize="9.8425" guides="1" tooltips="1" connect="1" arrows="1" fold="1" page="1" pageScale="1" pageWidth="1169" pageHeight="1654" math="0" shadow="0">
      <root>
        <object label="" description="Use Edit-&gt;Edit Data... on the document to configure the &quot;description&quot; property and modify this text.&#xa;When creating a new page, use the Extras-&gt;Edit Diagram... function to copy and paste the raw code for the template page." rev="A0" size="A3" scale="1:1" author="John Doe" part_num="" dwg_no="" serial_num="" extra_label="Part #" id="0">
          <mxCell />
        </object>
        <object label="Title Block" id="1">
          <mxCell style="locked=1;" parent="0" />
        </object>
        <mxCell id="BJZrzUYKFe9HMTDBOYGV-1" value="" style="rounded=0;whiteSpace=wrap;html=1;fillColor=none;movable=1;resizable=1;rotatable=1;deletable=1;editable=1;locked=0;connectable=1;" parent="1" vertex="1">
          <mxGeometry x="19.685" y="19.685" width="1129.9189999999999" height="1614.1699999999998" as="geometry" />
        </mxCell>
        <mxCell id="BJZrzUYKFe9HMTDBOYGV-2" value="" style="rounded=0;whiteSpace=wrap;html=1;fillColor=none;strokeWidth=1;movable=1;resizable=1;rotatable=1;deletable=1;editable=1;locked=0;connectable=1;" parent="1" vertex="1">
          <mxGeometry x="39.37" y="39.37" width="1090.549" height="1574.8" as="geometry" />
        </mxCell>
        <mxCell id="BJZrzUYKFe9HMTDBOYGV-27" value="" style="endArrow=none;html=1;rounded=0;movable=1;resizable=1;rotatable=1;deletable=1;editable=1;locked=0;connectable=1;" parent="1" edge="1">
          <mxGeometry width="50" height="50" relative="1" as="geometry">
            <mxPoint x="781.4899999999999" y="38.69999999999999" as="sourcePoint" />
            <mxPoint x="781.4899999999999" y="19.69999999999999" as="targetPoint" />
          </mxGeometry>
        </mxCell>
        <mxCell id="BJZrzUYKFe9HMTDBOYGV-35" value="" style="endArrow=none;html=1;rounded=0;movable=1;resizable=1;rotatable=1;deletable=1;editable=1;locked=0;connectable=1;" parent="1" edge="1">
          <mxGeometry width="50" height="50" relative="1" as="geometry">
            <mxPoint x="387.78499999999985" y="38.69499999999999" as="sourcePoint" />
            <mxPoint x="387.78499999999985" y="19.694999999999993" as="targetPoint" />
          </mxGeometry>
        </mxCell>
        <mxCell id="BJZrzUYKFe9HMTDBOYGV-45" value="" style="endArrow=none;html=1;rounded=0;movable=1;resizable=1;rotatable=1;deletable=1;editable=1;locked=0;connectable=1;" parent="1" edge="1">
          <mxGeometry width="50" height="50" relative="1" as="geometry">
            <mxPoint x="19.7" y="629.92" as="sourcePoint" />
            <mxPoint x="39" y="629.92" as="targetPoint" />
          </mxGeometry>
        </mxCell>
        <mxCell id="BJZrzUYKFe9HMTDBOYGV-46" value="" style="endArrow=none;html=1;rounded=0;movable=1;resizable=1;rotatable=1;deletable=1;editable=1;locked=0;connectable=1;" parent="1" edge="1">
          <mxGeometry width="50" height="50" relative="1" as="geometry">
            <mxPoint x="19.87" y="1023.62" as="sourcePoint" />
            <mxPoint x="39.17" y="1023.62" as="targetPoint" />
          </mxGeometry>
        </mxCell>
        <mxCell id="BJZrzUYKFe9HMTDBOYGV-49" value="C" style="text;html=1;strokeColor=none;fillColor=none;align=center;verticalAlign=middle;whiteSpace=wrap;rounded=0;fontFamily=Open Sans;fontSize=18;movable=1;resizable=1;rotatable=1;deletable=1;editable=1;locked=0;connectable=1;" parent="1" vertex="1">
          <mxGeometry x="19.679999999999996" y="521.6499999999999" width="19.685" height="19.685" as="geometry" />
        </mxCell>
        <mxCell id="BJZrzUYKFe9HMTDBOYGV-52" value="D" style="text;html=1;strokeColor=none;fillColor=none;align=center;verticalAlign=middle;whiteSpace=wrap;rounded=0;fontFamily=Open Sans;fontSize=18;movable=1;resizable=1;rotatable=1;deletable=1;editable=1;locked=0;connectable=1;" parent="1" vertex="1">
          <mxGeometry x="19.68249999999999" y="718.5024999999998" width="19.685" height="19.685" as="geometry" />
        </mxCell>
        <mxCell id="BJZrzUYKFe9HMTDBOYGV-53" value="E" style="text;html=1;strokeColor=none;fillColor=none;align=center;verticalAlign=middle;whiteSpace=wrap;rounded=0;fontFamily=Open Sans;fontSize=18;movable=1;resizable=1;rotatable=1;deletable=1;editable=1;locked=0;connectable=1;" parent="1" vertex="1">
          <mxGeometry x="20.405" y="915.5949999999998" width="19.685" height="19.685" as="geometry" />
        </mxCell>
        <mxCell id="BJZrzUYKFe9HMTDBOYGV-54" value="F" style="text;html=1;strokeColor=none;fillColor=none;align=center;verticalAlign=middle;whiteSpace=wrap;rounded=0;fontFamily=Open Sans;fontSize=18;movable=1;resizable=1;rotatable=1;deletable=1;editable=1;locked=0;connectable=1;" parent="1" vertex="1">
          <mxGeometry x="20.417500000000004" y="1112.4399999999998" width="19.685" height="19.685" as="geometry" />
        </mxCell>
        <mxCell id="BJZrzUYKFe9HMTDBOYGV-60" value="2" style="text;html=1;strokeColor=none;fillColor=none;align=center;verticalAlign=middle;whiteSpace=wrap;rounded=0;fontFamily=Open Sans;fontSize=18;movable=1;resizable=1;rotatable=1;deletable=1;editable=1;locked=0;connectable=1;" parent="1" vertex="1">
          <mxGeometry x="279.525" y="19.694999999999993" width="19.685" height="19.685" as="geometry" />
        </mxCell>
        <mxCell id="BJZrzUYKFe9HMTDBOYGV-61" value="3" style="text;html=1;strokeColor=none;fillColor=none;align=center;verticalAlign=middle;whiteSpace=wrap;rounded=0;fontFamily=Open Sans;fontSize=18;movable=1;resizable=1;rotatable=1;deletable=1;editable=1;locked=0;connectable=1;" parent="1" vertex="1">
          <mxGeometry x="476.36749999999995" y="19.6875" width="19.685" height="19.685" as="geometry" />
        </mxCell>
        <mxCell id="BJZrzUYKFe9HMTDBOYGV-62" value="4" style="text;html=1;strokeColor=none;fillColor=none;align=center;verticalAlign=middle;whiteSpace=wrap;rounded=0;fontFamily=Open Sans;fontSize=18;movable=1;resizable=1;rotatable=1;deletable=1;editable=1;locked=0;connectable=1;" parent="1" vertex="1">
          <mxGeometry x="673.2199999999999" y="19.689999999999998" width="19.685" height="19.685" as="geometry" />
        </mxCell>
        <mxCell id="BJZrzUYKFe9HMTDBOYGV-63" value="5" style="text;html=1;strokeColor=none;fillColor=none;align=center;verticalAlign=middle;whiteSpace=wrap;rounded=0;fontFamily=Open Sans;fontSize=18;movable=1;resizable=1;rotatable=1;deletable=1;editable=1;locked=0;connectable=1;" parent="1" vertex="1">
          <mxGeometry x="870.0724999999999" y="19.692499999999995" width="19.685" height="19.685" as="geometry" />
        </mxCell>
        <mxCell id="BJZrzUYKFe9HMTDBOYGV-4" value="" style="endArrow=none;html=1;rounded=0;strokeWidth=3;targetPerimeterSpacing=0;movable=1;resizable=1;rotatable=1;deletable=1;editable=1;locked=0;connectable=1;" parent="1" edge="1">
          <mxGeometry width="50" height="50" relative="1" as="geometry">
            <mxPoint x="584.55" y="59.059999999999995" as="sourcePoint" />
            <mxPoint x="584.55" y="19.689999999999987" as="targetPoint" />
          </mxGeometry>
        </mxCell>
        <mxCell id="BJZrzUYKFe9HMTDBOYGV-11" value="" style="endArrow=none;html=1;rounded=0;strokeWidth=3;movable=1;resizable=1;rotatable=1;deletable=1;editable=1;locked=0;connectable=1;" parent="1" edge="1">
          <mxGeometry width="50" height="50" relative="1" as="geometry">
            <mxPoint x="19.68" y="826.72" as="sourcePoint" />
            <mxPoint x="58.68" y="826.72" as="targetPoint" />
          </mxGeometry>
        </mxCell>
        <mxCell id="OLBhReI0X-7dMYb3t88i-10" value="" style="endArrow=none;html=1;rounded=0;movable=1;resizable=1;rotatable=1;deletable=1;editable=1;locked=0;connectable=1;" parent="1" edge="1">
          <mxGeometry width="50" height="50" relative="1" as="geometry">
            <mxPoint x="19.7" y="433" as="sourcePoint" />
            <mxPoint x="39" y="433" as="targetPoint" />
          </mxGeometry>
        </mxCell>
        <mxCell id="OLBhReI0X-7dMYb3t88i-11" value="B" style="text;html=1;strokeColor=none;fillColor=none;align=center;verticalAlign=middle;whiteSpace=wrap;rounded=0;fontFamily=Open Sans;fontSize=18;movable=1;resizable=1;rotatable=1;deletable=1;editable=1;locked=0;connectable=1;" parent="1" vertex="1">
          <mxGeometry x="19.702499999999997" y="322.8324999999999" width="19.685" height="19.685" as="geometry" />
        </mxCell>
        <mxCell id="OLBhReI0X-7dMYb3t88i-12" value="" style="endArrow=none;html=1;rounded=0;movable=1;resizable=1;rotatable=1;deletable=1;editable=1;locked=0;connectable=1;" parent="1" edge="1">
          <mxGeometry width="50" height="50" relative="1" as="geometry">
            <mxPoint x="19.685000000000002" y="1220.475" as="sourcePoint" />
            <mxPoint x="39.735" y="1220.475" as="targetPoint" />
          </mxGeometry>
        </mxCell>
        <mxCell id="OLBhReI0X-7dMYb3t88i-13" value="G" style="text;html=1;strokeColor=none;fillColor=none;align=center;verticalAlign=middle;whiteSpace=wrap;rounded=0;fontFamily=Open Sans;fontSize=18;movable=1;resizable=1;rotatable=1;deletable=1;editable=1;locked=0;connectable=1;" parent="1" vertex="1">
          <mxGeometry x="19.680000000000003" y="1309.0524999999998" width="19.685" height="19.685" as="geometry" />
        </mxCell>
        <mxCell id="OLBhReI0X-7dMYb3t88i-17" value="" style="endArrow=none;html=1;rounded=0;movable=1;resizable=1;rotatable=1;deletable=1;editable=1;locked=0;connectable=1;" parent="1" edge="1">
          <mxGeometry width="50" height="50" relative="1" as="geometry">
            <mxPoint x="190.74349999999984" y="38.683499999999995" as="sourcePoint" />
            <mxPoint x="190.74349999999984" y="19.68349999999999" as="targetPoint" />
          </mxGeometry>
        </mxCell>
        <mxCell id="OLBhReI0X-7dMYb3t88i-18" value="1" style="text;html=1;strokeColor=none;fillColor=none;align=center;verticalAlign=middle;whiteSpace=wrap;rounded=0;fontFamily=Open Sans;fontSize=18;movable=1;resizable=1;rotatable=1;deletable=1;editable=1;locked=0;connectable=1;" parent="1" vertex="1">
          <mxGeometry x="82.48349999999998" y="19.68349999999999" width="19.685" height="19.685" as="geometry" />
        </mxCell>
        <mxCell id="OLBhReI0X-7dMYb3t88i-19" value="" style="endArrow=none;html=1;rounded=0;movable=1;resizable=1;rotatable=1;deletable=1;editable=1;locked=0;connectable=1;" parent="1" edge="1">
          <mxGeometry width="50" height="50" relative="1" as="geometry">
            <mxPoint x="978.3384999999998" y="38.68849999999999" as="sourcePoint" />
            <mxPoint x="978.3384999999998" y="19.688499999999987" as="targetPoint" />
          </mxGeometry>
        </mxCell>
        <mxCell id="OLBhReI0X-7dMYb3t88i-20" value="6" style="text;html=1;strokeColor=none;fillColor=none;align=center;verticalAlign=middle;whiteSpace=wrap;rounded=0;fontFamily=Open Sans;fontSize=18;movable=1;resizable=1;rotatable=1;deletable=1;editable=1;locked=0;connectable=1;" parent="1" vertex="1">
          <mxGeometry x="1066.9209999999998" y="19.680999999999994" width="19.685" height="19.685" as="geometry" />
        </mxCell>
        <mxCell id="OLBhReI0X-7dMYb3t88i-21" value="" style="endArrow=none;html=1;rounded=0;movable=1;resizable=1;rotatable=1;deletable=1;editable=1;locked=0;connectable=1;" parent="1" edge="1">
          <mxGeometry width="50" height="50" relative="1" as="geometry">
            <mxPoint x="781.5884999999997" y="1633.1885" as="sourcePoint" />
            <mxPoint x="781.5884999999997" y="1614.1885" as="targetPoint" />
          </mxGeometry>
        </mxCell>
        <mxCell id="OLBhReI0X-7dMYb3t88i-22" value="" style="endArrow=none;html=1;rounded=0;movable=1;resizable=1;rotatable=1;deletable=1;editable=1;locked=0;connectable=1;" parent="1" edge="1">
          <mxGeometry width="50" height="50" relative="1" as="geometry">
            <mxPoint x="387.88349999999986" y="1633.1834999999999" as="sourcePoint" />
            <mxPoint x="387.88349999999986" y="1614.1834999999999" as="targetPoint" />
          </mxGeometry>
        </mxCell>
        <mxCell id="OLBhReI0X-7dMYb3t88i-23" value="2" style="text;html=1;strokeColor=none;fillColor=none;align=center;verticalAlign=middle;whiteSpace=wrap;rounded=0;fontFamily=Open Sans;fontSize=18;movable=1;resizable=1;rotatable=1;deletable=1;editable=1;locked=0;connectable=1;" parent="1" vertex="1">
          <mxGeometry x="279.6235" y="1614.1834999999999" width="19.685" height="19.685" as="geometry" />
        </mxCell>
        <mxCell id="OLBhReI0X-7dMYb3t88i-24" value="3" style="text;html=1;strokeColor=none;fillColor=none;align=center;verticalAlign=middle;whiteSpace=wrap;rounded=0;fontFamily=Open Sans;fontSize=18;movable=1;resizable=1;rotatable=1;deletable=1;editable=1;locked=0;connectable=1;" parent="1" vertex="1">
          <mxGeometry x="476.46599999999995" y="1614.176" width="19.685" height="19.685" as="geometry" />
        </mxCell>
        <mxCell id="OLBhReI0X-7dMYb3t88i-25" value="4" style="text;html=1;strokeColor=none;fillColor=none;align=center;verticalAlign=middle;whiteSpace=wrap;rounded=0;fontFamily=Open Sans;fontSize=18;movable=1;resizable=1;rotatable=1;deletable=1;editable=1;locked=0;connectable=1;" parent="1" vertex="1">
          <mxGeometry x="673.3184999999997" y="1614.1785" width="19.685" height="19.685" as="geometry" />
        </mxCell>
        <mxCell id="OLBhReI0X-7dMYb3t88i-26" value="5" style="text;html=1;strokeColor=none;fillColor=none;align=center;verticalAlign=middle;whiteSpace=wrap;rounded=0;fontFamily=Open Sans;fontSize=18;movable=1;resizable=1;rotatable=1;deletable=1;editable=1;locked=0;connectable=1;" parent="1" vertex="1">
          <mxGeometry x="870.1709999999997" y="1614.181" width="19.685" height="19.685" as="geometry" />
        </mxCell>
        <mxCell id="OLBhReI0X-7dMYb3t88i-27" value="" style="endArrow=none;html=1;rounded=0;strokeWidth=3;targetPerimeterSpacing=0;movable=1;resizable=1;rotatable=1;deletable=1;editable=1;locked=0;connectable=1;" parent="1" edge="1">
          <mxGeometry width="50" height="50" relative="1" as="geometry">
            <mxPoint x="584.55" y="1633.8684999999998" as="sourcePoint" />
            <mxPoint x="584.55" y="1594.4985" as="targetPoint" />
          </mxGeometry>
        </mxCell>
        <mxCell id="OLBhReI0X-7dMYb3t88i-28" value="" style="endArrow=none;html=1;rounded=0;movable=1;resizable=1;rotatable=1;deletable=1;editable=1;locked=0;connectable=1;" parent="1" edge="1">
          <mxGeometry width="50" height="50" relative="1" as="geometry">
            <mxPoint x="190.84199999999984" y="1633.172" as="sourcePoint" />
            <mxPoint x="190.84199999999984" y="1614.172" as="targetPoint" />
          </mxGeometry>
        </mxCell>
        <mxCell id="OLBhReI0X-7dMYb3t88i-29" value="1" style="text;html=1;strokeColor=none;fillColor=none;align=center;verticalAlign=middle;whiteSpace=wrap;rounded=0;fontFamily=Open Sans;fontSize=18;movable=1;resizable=1;rotatable=1;deletable=1;editable=1;locked=0;connectable=1;" parent="1" vertex="1">
          <mxGeometry x="82.58199999999998" y="1614.172" width="19.685" height="19.685" as="geometry" />
        </mxCell>
        <mxCell id="OLBhReI0X-7dMYb3t88i-30" value="" style="endArrow=none;html=1;rounded=0;movable=1;resizable=1;rotatable=1;deletable=1;editable=1;locked=0;connectable=1;" parent="1" edge="1">
          <mxGeometry width="50" height="50" relative="1" as="geometry">
            <mxPoint x="978.4369999999997" y="1633.177" as="sourcePoint" />
            <mxPoint x="978.4369999999997" y="1614.177" as="targetPoint" />
          </mxGeometry>
        </mxCell>
        <mxCell id="OLBhReI0X-7dMYb3t88i-31" value="6" style="text;html=1;strokeColor=none;fillColor=none;align=center;verticalAlign=middle;whiteSpace=wrap;rounded=0;fontFamily=Open Sans;fontSize=18;movable=1;resizable=1;rotatable=1;deletable=1;editable=1;locked=0;connectable=1;" parent="1" vertex="1">
          <mxGeometry x="1067.0194999999999" y="1614.1695" width="19.685" height="19.685" as="geometry" />
        </mxCell>
        <mxCell id="OLBhReI0X-7dMYb3t88i-35" value="" style="endArrow=none;html=1;rounded=0;movable=1;resizable=1;rotatable=1;deletable=1;editable=1;locked=0;connectable=1;" parent="1" edge="1">
          <mxGeometry width="50" height="50" relative="1" as="geometry">
            <mxPoint x="19.6985" y="236.1585" as="sourcePoint" />
            <mxPoint x="38.9985" y="236.1585" as="targetPoint" />
          </mxGeometry>
        </mxCell>
        <mxCell id="OLBhReI0X-7dMYb3t88i-36" value="A" style="text;html=1;strokeColor=none;fillColor=none;align=center;verticalAlign=middle;whiteSpace=wrap;rounded=0;fontFamily=Open Sans;fontSize=18;movable=1;resizable=1;rotatable=1;deletable=1;editable=1;locked=0;connectable=1;" parent="1" vertex="1">
          <mxGeometry x="19.700999999999997" y="125.99099999999991" width="19.685" height="19.685" as="geometry" />
        </mxCell>
        <mxCell id="OLBhReI0X-7dMYb3t88i-39" value="" style="endArrow=none;html=1;rounded=0;movable=1;resizable=1;rotatable=1;deletable=1;editable=1;locked=0;connectable=1;" parent="1" edge="1">
          <mxGeometry width="50" height="50" relative="1" as="geometry">
            <mxPoint x="19.6835" y="1417.3235" as="sourcePoint" />
            <mxPoint x="39.7335" y="1417.3235" as="targetPoint" />
          </mxGeometry>
        </mxCell>
        <mxCell id="OLBhReI0X-7dMYb3t88i-40" value="H" style="text;html=1;strokeColor=none;fillColor=none;align=center;verticalAlign=middle;whiteSpace=wrap;rounded=0;fontFamily=Open Sans;fontSize=18;movable=1;resizable=1;rotatable=1;deletable=1;editable=1;locked=0;connectable=1;" parent="1" vertex="1">
          <mxGeometry x="19.6785" y="1505.9009999999998" width="19.685" height="19.685" as="geometry" />
        </mxCell>
        <mxCell id="OLBhReI0X-7dMYb3t88i-41" value="" style="endArrow=none;html=1;rounded=0;movable=1;resizable=1;rotatable=1;deletable=1;editable=1;locked=0;connectable=1;" parent="1" edge="1">
          <mxGeometry width="50" height="50" relative="1" as="geometry">
            <mxPoint x="1130.0185" y="629.9185" as="sourcePoint" />
            <mxPoint x="1149.3184999999999" y="629.9185" as="targetPoint" />
          </mxGeometry>
        </mxCell>
        <mxCell id="OLBhReI0X-7dMYb3t88i-42" value="" style="endArrow=none;html=1;rounded=0;movable=1;resizable=1;rotatable=1;deletable=1;editable=1;locked=0;connectable=1;" parent="1" edge="1">
          <mxGeometry width="50" height="50" relative="1" as="geometry">
            <mxPoint x="1130.1885" y="1023.6185" as="sourcePoint" />
            <mxPoint x="1149.4885" y="1023.6185" as="targetPoint" />
          </mxGeometry>
        </mxCell>
        <mxCell id="OLBhReI0X-7dMYb3t88i-43" value="C" style="text;html=1;strokeColor=none;fillColor=none;align=center;verticalAlign=middle;whiteSpace=wrap;rounded=0;fontFamily=Open Sans;fontSize=18;movable=1;resizable=1;rotatable=1;deletable=1;editable=1;locked=0;connectable=1;" parent="1" vertex="1">
          <mxGeometry x="1129.9985" y="521.6484999999999" width="19.685" height="19.685" as="geometry" />
        </mxCell>
        <mxCell id="OLBhReI0X-7dMYb3t88i-44" value="D" style="text;html=1;strokeColor=none;fillColor=none;align=center;verticalAlign=middle;whiteSpace=wrap;rounded=0;fontFamily=Open Sans;fontSize=18;movable=1;resizable=1;rotatable=1;deletable=1;editable=1;locked=0;connectable=1;" parent="1" vertex="1">
          <mxGeometry x="1130.001" y="718.5009999999999" width="19.685" height="19.685" as="geometry" />
        </mxCell>
        <mxCell id="OLBhReI0X-7dMYb3t88i-45" value="E" style="text;html=1;strokeColor=none;fillColor=none;align=center;verticalAlign=middle;whiteSpace=wrap;rounded=0;fontFamily=Open Sans;fontSize=18;movable=1;resizable=1;rotatable=1;deletable=1;editable=1;locked=0;connectable=1;" parent="1" vertex="1">
          <mxGeometry x="1130.7234999999998" y="915.5934999999998" width="19.685" height="19.685" as="geometry" />
        </mxCell>
        <mxCell id="OLBhReI0X-7dMYb3t88i-46" value="F" style="text;html=1;strokeColor=none;fillColor=none;align=center;verticalAlign=middle;whiteSpace=wrap;rounded=0;fontFamily=Open Sans;fontSize=18;movable=1;resizable=1;rotatable=1;deletable=1;editable=1;locked=0;connectable=1;" parent="1" vertex="1">
          <mxGeometry x="1130.7359999999999" y="1112.4384999999997" width="19.685" height="19.685" as="geometry" />
        </mxCell>
        <mxCell id="OLBhReI0X-7dMYb3t88i-47" value="" style="endArrow=none;html=1;rounded=0;strokeWidth=3;movable=1;resizable=1;rotatable=1;deletable=1;editable=1;locked=0;connectable=1;" parent="1" edge="1">
          <mxGeometry width="50" height="50" relative="1" as="geometry">
            <mxPoint x="1110.7084999999997" y="826.72" as="sourcePoint" />
            <mxPoint x="1149.7084999999997" y="826.72" as="targetPoint" />
          </mxGeometry>
        </mxCell>
        <mxCell id="OLBhReI0X-7dMYb3t88i-48" value="" style="endArrow=none;html=1;rounded=0;movable=1;resizable=1;rotatable=1;deletable=1;editable=1;locked=0;connectable=1;" parent="1" edge="1">
          <mxGeometry width="50" height="50" relative="1" as="geometry">
            <mxPoint x="1130.0185" y="432.9985" as="sourcePoint" />
            <mxPoint x="1149.3184999999999" y="432.9985" as="targetPoint" />
          </mxGeometry>
        </mxCell>
        <mxCell id="OLBhReI0X-7dMYb3t88i-49" value="B" style="text;html=1;strokeColor=none;fillColor=none;align=center;verticalAlign=middle;whiteSpace=wrap;rounded=0;fontFamily=Open Sans;fontSize=18;movable=1;resizable=1;rotatable=1;deletable=1;editable=1;locked=0;connectable=1;" parent="1" vertex="1">
          <mxGeometry x="1130.021" y="322.8309999999999" width="19.685" height="19.685" as="geometry" />
        </mxCell>
        <mxCell id="OLBhReI0X-7dMYb3t88i-50" value="" style="endArrow=none;html=1;rounded=0;movable=1;resizable=1;rotatable=1;deletable=1;editable=1;locked=0;connectable=1;" parent="1" edge="1">
          <mxGeometry width="50" height="50" relative="1" as="geometry">
            <mxPoint x="1130.0034999999998" y="1220.4734999999998" as="sourcePoint" />
            <mxPoint x="1150.0535" y="1220.4734999999998" as="targetPoint" />
          </mxGeometry>
        </mxCell>
        <mxCell id="OLBhReI0X-7dMYb3t88i-51" value="G" style="text;html=1;strokeColor=none;fillColor=none;align=center;verticalAlign=middle;whiteSpace=wrap;rounded=0;fontFamily=Open Sans;fontSize=18;movable=1;resizable=1;rotatable=1;deletable=1;editable=1;locked=0;connectable=1;" parent="1" vertex="1">
          <mxGeometry x="1129.9985" y="1309.0509999999997" width="19.685" height="19.685" as="geometry" />
        </mxCell>
        <mxCell id="OLBhReI0X-7dMYb3t88i-52" value="" style="endArrow=none;html=1;rounded=0;movable=1;resizable=1;rotatable=1;deletable=1;editable=1;locked=0;connectable=1;" parent="1" edge="1">
          <mxGeometry width="50" height="50" relative="1" as="geometry">
            <mxPoint x="1130.0169999999998" y="236.157" as="sourcePoint" />
            <mxPoint x="1149.317" y="236.157" as="targetPoint" />
          </mxGeometry>
        </mxCell>
        <mxCell id="OLBhReI0X-7dMYb3t88i-53" value="A" style="text;html=1;strokeColor=none;fillColor=none;align=center;verticalAlign=middle;whiteSpace=wrap;rounded=0;fontFamily=Open Sans;fontSize=18;movable=1;resizable=1;rotatable=1;deletable=1;editable=1;locked=0;connectable=1;" parent="1" vertex="1">
          <mxGeometry x="1130.0194999999999" y="125.98949999999991" width="19.685" height="19.685" as="geometry" />
        </mxCell>
        <mxCell id="OLBhReI0X-7dMYb3t88i-54" value="" style="endArrow=none;html=1;rounded=0;movable=1;resizable=1;rotatable=1;deletable=1;editable=1;locked=0;connectable=1;" parent="1" edge="1">
          <mxGeometry width="50" height="50" relative="1" as="geometry">
            <mxPoint x="1130.002" y="1417.322" as="sourcePoint" />
            <mxPoint x="1150.052" y="1417.322" as="targetPoint" />
          </mxGeometry>
        </mxCell>
        <mxCell id="OLBhReI0X-7dMYb3t88i-55" value="H" style="text;html=1;strokeColor=none;fillColor=none;align=center;verticalAlign=middle;whiteSpace=wrap;rounded=0;fontFamily=Open Sans;fontSize=18;movable=1;resizable=1;rotatable=1;deletable=1;editable=1;locked=0;connectable=1;" parent="1" vertex="1">
          <mxGeometry x="1129.9969999999998" y="1505.8994999999998" width="19.685" height="19.685" as="geometry" />
        </mxCell>
        <mxCell id="h7L3MlKvrl_dhOmhB3lf-10" value="Prepared with: draw.io v22.0.0" style="strokeWidth=1;shadow=0;dashed=0;align=center;html=1;shape=mxgraph.mockup.text.textBox;fontColor=#666666;align=left;fontSize=17;spacingLeft=4;spacingTop=-3;whiteSpace=wrap;strokeColor=#333333;mainText=;fillColor=none;fontFamily=Open Sans;movable=1;resizable=1;rotatable=1;deletable=1;editable=1;locked=0;connectable=1;" parent="1" vertex="1">
          <mxGeometry x="572.2399999999999" y="1584.1799999999998" width="280" height="30" as="geometry" />
        </mxCell>
        <object label="&lt;div align=&quot;left&quot;&gt;Sheet %pagenumber%/%pagecount%&lt;/div&gt;" placeholders="1" id="h7L3MlKvrl_dhOmhB3lf-12">
          <mxCell style="strokeWidth=1;shadow=0;dashed=0;align=left;html=1;shape=mxgraph.mockup.text.textBox;fontColor=#666666;align=left;fontSize=17;spacingLeft=4;spacingTop=-3;whiteSpace=wrap;strokeColor=#333333;mainText=;fillColor=none;fontFamily=Open Sans;movable=1;resizable=1;rotatable=1;deletable=1;editable=1;locked=0;connectable=1;" parent="1" vertex="1">
            <mxGeometry x="412.24000000000007" y="1584.1799999999998" width="160" height="30" as="geometry" />
          </mxCell>
        </object>
        <object label="Date: &lt;font style=&quot;font-size: 17px;&quot;&gt;%date{ddd mmm dd yyyy HH:MM:ss}%&lt;/font&gt;" placeholders="1" id="h7L3MlKvrl_dhOmhB3lf-13">
          <mxCell style="strokeWidth=1;shadow=0;dashed=0;align=center;html=1;shape=mxgraph.mockup.text.textBox;fontColor=#666666;align=left;fontSize=17;spacingLeft=4;spacingTop=-3;whiteSpace=wrap;strokeColor=#333333;mainText=;fillColor=none;fontFamily=Open Sans;movable=1;resizable=1;rotatable=1;deletable=1;editable=1;locked=0;connectable=1;" parent="1" vertex="1">
            <mxGeometry x="852.24" y="1584.18" width="277.68" height="30" as="geometry" />
          </mxCell>
        </object>
        <object label="&lt;b&gt;Title: %page%&lt;/b&gt;" placeholders="1" id="h7L3MlKvrl_dhOmhB3lf-14">
          <mxCell style="strokeWidth=1;shadow=0;dashed=0;align=center;html=1;shape=mxgraph.mockup.text.textBox;fontColor=#666666;align=left;fontSize=17;spacingLeft=4;spacingTop=-3;whiteSpace=wrap;strokeColor=#333333;mainText=;fillColor=none;fontFamily=Open Sans;movable=1;resizable=1;rotatable=1;deletable=1;editable=1;locked=0;connectable=1;" parent="1" vertex="1">
            <mxGeometry x="412.24000000000007" y="1494.1799999999998" width="600" height="30" as="geometry" />
          </mxCell>
        </object>
        <object label="Filename: %filename%" placeholders="1" id="h7L3MlKvrl_dhOmhB3lf-15">
          <mxCell style="strokeWidth=1;shadow=0;dashed=0;align=center;html=1;shape=mxgraph.mockup.text.textBox;fontColor=#666666;align=left;fontSize=17;spacingLeft=4;spacingTop=-3;whiteSpace=wrap;strokeColor=#333333;mainText=;fillColor=none;fontFamily=Open Sans;movable=1;resizable=1;rotatable=1;deletable=1;editable=1;locked=0;connectable=1;" parent="1" vertex="1">
            <mxGeometry x="412.24000000000007" y="1524.1799999999998" width="400" height="30" as="geometry" />
          </mxCell>
        </object>
        <object label="&lt;div align=&quot;left&quot;&gt;%description%&lt;/div&gt;" placeholders="1" id="h7L3MlKvrl_dhOmhB3lf-16">
          <mxCell style="strokeWidth=1;shadow=0;dashed=0;html=1;shape=mxgraph.mockup.text.textBox;fontColor=#666666;align=left;verticalAlign=top;fontSize=12;spacingLeft=4;spacingTop=-3;whiteSpace=wrap;strokeColor=#333333;mainText=;fillColor=none;fontFamily=Open Sans;movable=1;resizable=1;rotatable=1;deletable=1;editable=1;locked=0;connectable=1;" parent="1" vertex="1">
            <mxGeometry x="412.24" y="1404.18" width="717.68" height="90" as="geometry" />
          </mxCell>
        </object>
        <object label="&lt;b&gt;Rev: %rev%&lt;br&gt;&lt;/b&gt;" placeholders="1" id="EyKvBmyPNv_MzgSUc5b6-1">
          <mxCell style="strokeWidth=1;shadow=0;dashed=0;align=center;html=1;shape=mxgraph.mockup.text.textBox;fontColor=#666666;align=left;fontSize=17;spacingLeft=4;spacingTop=-3;whiteSpace=wrap;strokeColor=#333333;mainText=;fillColor=none;fontFamily=Open Sans;movable=1;resizable=1;rotatable=1;deletable=1;editable=1;locked=0;connectable=1;" parent="1" vertex="1">
            <mxGeometry x="1012.24" y="1494.18" width="117.68" height="30" as="geometry" />
          </mxCell>
        </object>
        <object label="&lt;div align=&quot;left&quot;&gt;Size: %size%&lt;/div&gt;" placeholders="1" id="kxruepuoSyuf0zwoeRE9-5">
          <mxCell style="strokeWidth=1;shadow=0;dashed=0;align=left;html=1;shape=mxgraph.mockup.text.textBox;fontColor=#666666;align=left;fontSize=17;spacingLeft=4;spacingTop=-3;whiteSpace=wrap;strokeColor=#333333;mainText=;fillColor=none;fontFamily=Open Sans;movable=1;resizable=1;rotatable=1;deletable=1;editable=1;locked=0;connectable=1;" parent="1" vertex="1">
            <mxGeometry x="932.24" y="1554.18" width="197.68" height="30" as="geometry" />
          </mxCell>
        </object>
        <object label="&lt;div align=&quot;left&quot;&gt;Scale: %scale%&lt;/div&gt;" placeholders="1" id="kxruepuoSyuf0zwoeRE9-6">
          <mxCell style="strokeWidth=1;shadow=0;dashed=0;align=left;html=1;shape=mxgraph.mockup.text.textBox;fontColor=#666666;align=left;fontSize=17;spacingLeft=4;spacingTop=-3;whiteSpace=wrap;strokeColor=#333333;mainText=;fillColor=none;fontFamily=Open Sans;movable=1;resizable=1;rotatable=1;deletable=1;editable=1;locked=0;connectable=1;" parent="1" vertex="1">
            <mxGeometry x="812.2399999999999" y="1554.1799999999998" width="120" height="30" as="geometry" />
          </mxCell>
        </object>
        <object label="Prepared By: %author%" placeholders="1" id="kxruepuoSyuf0zwoeRE9-7">
          <mxCell style="strokeWidth=1;shadow=0;dashed=0;align=center;html=1;shape=mxgraph.mockup.text.textBox;fontColor=#666666;align=left;fontSize=17;spacingLeft=4;spacingTop=-3;whiteSpace=wrap;strokeColor=#333333;mainText=;fillColor=none;fontFamily=Open Sans;movable=1;resizable=1;rotatable=1;deletable=1;editable=1;locked=0;connectable=1;" parent="1" vertex="1">
            <mxGeometry x="412.24000000000007" y="1554.1799999999998" width="400" height="30" as="geometry" />
          </mxCell>
        </object>
        <object label="%extra_label% %dwg_no%%part_num%%serial_num%" placeholders="1" id="kxruepuoSyuf0zwoeRE9-8">
          <mxCell style="strokeWidth=1;shadow=0;dashed=0;align=center;html=1;shape=mxgraph.mockup.text.textBox;fontColor=#666666;align=left;fontSize=17;spacingLeft=4;spacingTop=-3;whiteSpace=wrap;strokeColor=#333333;mainText=;fillColor=none;fontFamily=Open Sans;movable=1;resizable=1;rotatable=1;deletable=1;editable=1;locked=0;connectable=1;" parent="1" vertex="1">
            <mxGeometry x="812.24" y="1524.18" width="317.68" height="30" as="geometry" />
          </mxCell>
        </object>
        <object label="Drawing Frame" id="BJZrzUYKFe9HMTDBOYGV-83">
          <mxCell style="locked=1;" parent="0" />
        </object>
        <mxCell id="BJZrzUYKFe9HMTDBOYGV-84" value="" style="rounded=0;whiteSpace=wrap;html=1;fillColor=none;strokeWidth=3;movable=1;resizable=1;rotatable=1;deletable=1;editable=1;locked=0;connectable=1;" parent="BJZrzUYKFe9HMTDBOYGV-83" vertex="1">
          <mxGeometry x="39.37" y="39.37" width="1090.549" height="1574.8" as="geometry" />
        </mxCell>
        <object label="Document" id="NbdiYjX3MhI7OpqD2NvG-1">
          <mxCell parent="0" />
        </object>
        <mxCell id="kxruepuoSyuf0zwoeRE9-1" value="This text is on the document layer. Lower layers have the title block and grid reference frame. These layers are locked to prevent disturbance, but you can unlock them in the &quot;Layers&quot; panel." style="text;html=1;strokeColor=none;fillColor=none;align=center;verticalAlign=middle;whiteSpace=wrap;rounded=0;fontFamily=Open Sans;" parent="NbdiYjX3MhI7OpqD2NvG-1" vertex="1">
          <mxGeometry x="135.83000000000004" y="116.13999999999996" width="330" height="70" as="geometry" />
        </mxCell>
      </root>
    </mxGraphModel>
  </diagram>
</mxfile>
